<svg width="58" height="59" xmlns="http://www.w3.org/2000/svg" xmlns:xlink="http://www.w3.org/1999/xlink" xml:space="preserve" overflow="hidden"><g transform="translate(-117 -492)"><path d="M17.5208 15.7083C18.5479 15.7083 19.3333 14.9229 19.3333 13.8958L19.3333 10.2708C19.3333 9.24375 18.5479 8.45833 17.5208 8.45833 16.4937 8.45833 15.7083 9.24375 15.7083 10.2708L15.7083 13.8958C15.7083 14.9229 16.4937 15.7083 17.5208 15.7083Z" fill="#FFFFFF" transform="matrix(1 0 0 1.01724 117 492)"/><path d="M12.0833 26.5833 45.9167 26.5833 45.9167 45.9167 12.0833 45.9167 12.0833 26.5833ZM8.45833 49.5417 49.5417 49.5417 49.5417 22.9583 8.45833 22.9583 8.45833 49.5417Z" fill="#FFFFFF" transform="matrix(1 0 0 1.01724 117 492)"/><path d="M40.4792 15.7083C41.5062 15.7083 42.2917 14.9229 42.2917 13.8958L42.2917 10.2708C42.2917 9.24375 41.5062 8.45833 40.4792 8.45833 39.4521 8.45833 38.6667 9.24375 38.6667 10.2708L38.6667 13.8958C38.6667 14.9229 39.4521 15.7083 40.4792 15.7083Z" fill="#FFFFFF" transform="matrix(1 0 0 1.01724 117 492)"/><path d="M44.7083 12.0833 44.7083 13.8958C44.7083 16.2521 42.8354 18.125 40.4792 18.125 38.1229 18.125 36.25 16.2521 36.25 13.8958L36.25 12.0833 21.75 12.0833 21.75 13.8958C21.75 16.2521 19.8771 18.125 17.5208 18.125 15.1646 18.125 13.2917 16.2521 13.2917 13.8958L13.2917 12.0833 8.45833 12.0833 8.45833 20.5417 49.5417 20.5417 49.5417 12.0833 44.7083 12.0833Z" fill="#FFFFFF" transform="matrix(1 0 0 1.01724 117 492)"/></g></svg>